<svg xmlns="http://www.w3.org/2000/svg" width="1200" height="240" viewBox="0 0 1200 240">
  <g transform="translate(80.000,50.000) scale(0.273438)">
    <path d="M 66.000 126.000 A 80.000 80.000 0 0 1 146.000 46.000 L 236.000 46.000 A 210.000 210.000 0 1 1 236.000 466.000 L 146.000 466.000 A 80.000 80.000 0 0 1 66.000 386.000 L 66.000 126.000 Z M 122.000 126.000 A 24.000 24.000 0 0 1 146.000 102.000 L 180.000 102.000 A 154.000 154.000 0 1 1 180.000 410.000 L 146.000 410.000 A 24.000 24.000 0 0 1 122.000 386.000 L 122.000 126.000 Z" fill="#F7F9FC" fill-rule="evenodd"/>
  <path d="M 146.000 126.000 L 156.000 126.000 A 130.000 130.000 0 1 1 156.000 386.000 L 146.000 386.000 L 146.000 126.000 Z M 180.000 160.000 L 122.000 160.000 A 96.000 96.000 0 1 1 122.000 352.000 L 180.000 352.000 L 180.000 160.000 Z" fill="#F7F9FC" fill-rule="evenodd"/>
  </g>
  <text x="280.0" y="150.0" fill="#F7F9FC" font-family="ui-sans-serif, system-ui, -apple-system, Segoe UI, Roboto, Arial" font-size="96" font-weight="600" letter-spacing="-1">
    Darwin Education
  </text>
</svg>