<svg xmlns="http://www.w3.org/2000/svg" width="512" height="512" viewBox="0 0 512 512">
<path d="M 66.000 126.000 A 80.000 80.000 0 0 1 146.000 46.000 L 236.000 46.000 A 210.000 210.000 0 1 1 236.000 466.000 L 146.000 466.000 A 80.000 80.000 0 0 1 66.000 386.000 L 66.000 126.000 Z M 122.000 126.000 A 24.000 24.000 0 0 1 146.000 102.000 L 180.000 102.000 A 154.000 154.000 0 1 1 180.000 410.000 L 146.000 410.000 A 24.000 24.000 0 0 1 122.000 386.000 L 122.000 126.000 Z" fill="#0B0F14" fill-rule="evenodd"/>
  <path d="M 146.000 126.000 L 156.000 126.000 A 130.000 130.000 0 1 1 156.000 386.000 L 146.000 386.000 L 146.000 126.000 Z M 180.000 160.000 L 122.000 160.000 A 96.000 96.000 0 1 1 122.000 352.000 L 180.000 352.000 L 180.000 160.000 Z" fill="#0B0F14" fill-rule="evenodd"/>
</svg>